<svg version="1.0" xmlns="http://www.w3.org/2000/svg" width="708.000000pt" height="305.000000pt"
  viewBox="0 0 708.000000 305.000000" preserveAspectRatio="xMidYMid meet">

  <g transform="translate(0.000000,305.000000) scale(0.100000,-0.100000)" fill="#dcb227" stroke="none">
    <path d="M1460 2853 c-246 -16 -478 -91 -670 -219 -168 -111 -285 -226 -378
-369 -25 -38 -53 -81 -62 -95 -9 -14 -33 -61 -52 -105 -233 -521 -122 -1133
278 -1529 194 -193 459 -328 729 -373 116 -19 335 -19 450 0 92 16 289 76 328
101 12 8 33 17 47 21 21 7 121 70 245 155 82 56 238 234 316 359 76 123 151
324 175 474 20 117 20 336 0 452 -72 435 -354 809 -755 1000 -189 90 -450 141
-651 128z m255 -43 c585 -82 1067 -577 1126 -1157 21 -206 0 -402 -67 -599
-29 -88 -114 -247 -174 -328 -191 -258 -429 -419 -747 -508 -115 -32 -123 -33
-318 -33 -196 0 -203 1 -330 34 -243 64 -425 169 -605 350 -160 160 -260 320
-324 516 -52 159 -60 216 -59 430 l0 200 37 125 c60 200 117 316 226 460 60
79 216 234 266 265 16 10 38 27 49 36 11 10 74 45 140 78 121 60 282 113 400
130 84 12 296 13 380 1z" />
    <path d="M1981 2287 c-1 -10 -10 -39 -21 -65 -10 -26 -42 -110 -70 -187 -29
-77 -55 -144 -59 -150 -4 -5 -13 -30 -20 -55 -7 -25 -24 -72 -36 -105 -13 -33
-27 -71 -31 -85 -3 -14 -14 -38 -22 -55 -9 -16 -17 -35 -18 -42 -3 -18 -26
-87 -33 -98 -3 -5 -20 -50 -37 -100 -34 -95 -62 -173 -117 -320 l-34 -90 -108
-3 c-60 -1 -112 1 -117 6 -6 6 0 39 15 83 14 41 42 130 62 199 41 139 83 276
121 394 19 56 23 81 14 86 -9 5 -201 29 -355 43 -22 2 -21 0 -50 167 -26 146
-20 140 -77 79 -27 -30 -85 -91 -129 -135 -52 -55 -74 -84 -65 -87 7 -3 51 -8
97 -11 64 -4 73 -3 39 4 -25 5 -62 9 -82 9 -21 1 -38 4 -38 7 0 9 211 234 219
234 4 0 15 -46 25 -102 9 -57 20 -117 22 -134 l6 -31 -54 3 c-50 3 -44 0 28
-11 31 -5 31 -6 48 -108 10 -56 29 -160 43 -232 14 -71 28 -148 30 -170 2 -21
15 -93 29 -159 13 -66 21 -123 17 -127 -5 -5 -39 -10 -78 -12 l-70 -3 78 -2
c52 -1 77 -6 77 -14 0 -9 3 -9 12 0 8 8 50 12 121 12 l109 0 -7 -27 c-3 -16
-17 -55 -30 -88 -24 -61 -45 -141 -26 -100 5 11 25 63 44 115 l35 95 104 0
103 0 3 -27 c2 -16 18 -40 39 -59 32 -27 41 -31 77 -26 45 6 86 46 86 83 0 24
17 34 61 34 21 0 29 -5 29 -17 1 -17 1 -17 11 0 8 14 24 17 81 17 l70 0 -5 33
c-6 30 -30 241 -41 354 l-5 51 76 36 c42 20 73 39 70 42 -3 3 -37 -11 -75 -30
l-71 -36 -5 28 c-3 15 -12 88 -21 162 -8 74 -29 248 -45 385 -17 138 -30 266
-31 285 0 39 -17 90 -18 57z m32 -289 c14 -123 36 -308 47 -413 12 -104 22
-197 23 -205 1 -10 -64 -48 -203 -117 -113 -56 -200 -102 -193 -102 6 -1 94
39 195 89 101 49 188 90 195 90 7 0 14 -23 17 -57 4 -32 13 -113 21 -179 23
-187 27 -174 -50 -174 -44 0 -65 4 -65 12 0 9 -3 9 -12 0 -7 -7 -28 -12 -48
-12 -29 0 -41 6 -58 30 -39 52 -130 50 -166 -5 -15 -22 -22 -24 -116 -24 -55
0 -100 3 -100 8 0 9 111 313 140 383 11 26 20 51 20 57 0 6 11 35 25 65 14 30
25 58 25 62 0 4 23 69 51 145 31 84 55 136 62 132 6 -4 7 -1 3 6 -5 7 -3 24 2
39 12 32 106 288 128 350 9 23 19 42 23 42 4 0 19 -100 34 -222z m-690 -289
c85 -8 130 -16 134 -24 4 -11 -21 -94 -131 -445 -13 -41 -36 -117 -51 -167
-16 -51 -31 -93 -36 -93 -4 0 -15 44 -24 98 -30 174 -75 425 -95 532 -11 58
-20 109 -20 113 0 4 21 5 48 3 26 -3 105 -11 175 -17z" />
    <path d="M3182 1958 c-6 -8 -9 -177 -8 -462 1 -416 2 -450 19 -460 12 -8 22
-8 35 0 16 10 17 42 20 398 1 234 6 386 12 386 8 0 91 -97 145 -169 66 -89
141 -171 157 -171 21 0 18 -3 173 190 64 80 122 145 128 145 9 0 13 -104 17
-390 l5 -390 30 0 30 0 0 465 0 465 -25 3 c-22 3 -47 -23 -185 -192 -88 -108
-165 -196 -172 -196 -6 0 -37 30 -68 68 -30 37 -103 124 -162 195 -102 123
-128 143 -151 115z" />
    <path d="M4289 1637 c-101 -34 -161 -93 -198 -190 -67 -182 33 -375 220 -423
107 -27 202 -7 285 61 l43 35 8 -42 c7 -37 12 -43 33 -43 21 0 26 6 32 40 11
64 9 524 -2 546 -21 39 -70 10 -70 -42 0 -38 -9 -37 -50 6 -24 25 -54 42 -98
55 -82 25 -121 25 -203 -3z m207 -73 c155 -74 191 -285 71 -412 -35 -36 -120
-72 -172 -72 -95 0 -195 69 -236 164 -56 132 23 289 171 337 37 12 123 3 166
-17z" />
    <path d="M5394 1651 c-95 -23 -186 -99 -227 -189 -31 -68 -30 -188 2 -260 34
-77 122 -154 198 -175 72 -21 112 -21 181 -3 95 26 132 60 132 122 0 24 -2 44
-5 44 -3 0 -24 -18 -47 -40 -44 -42 -110 -70 -164 -70 -90 0 -194 71 -232 159
-20 46 -20 146 0 192 39 89 142 159 236 159 45 0 126 -37 168 -76 l32 -30 5
45 c5 41 3 48 -20 68 -56 46 -181 72 -259 54z" />
    <path d="M5981 1639 c-76 -24 -153 -94 -191 -174 -32 -67 -34 -188 -3 -257 30
-65 95 -133 162 -165 73 -36 190 -39 263 -6 66 30 133 95 165 162 23 47 28 69
28 136 0 67 -5 89 -28 137 -39 80 -111 142 -194 168 -81 25 -120 25 -202 -1z
m205 -78 c160 -76 197 -273 75 -404 -95 -103 -266 -98 -361 10 -45 51 -60 94
-60 171 0 99 52 180 145 224 77 36 123 36 201 -1z" />
    <path d="M6670 1653 c-61 -22 -84 -40 -101 -77 -24 -52 -23 -90 0 -143 20 -44
31 -52 126 -95 78 -34 132 -80 140 -117 14 -63 -52 -141 -118 -141 -41 0 -100
34 -131 75 -34 44 -69 46 -74 3 -2 -19 7 -38 34 -68 46 -51 76 -67 140 -75
102 -14 186 35 212 122 36 119 -6 186 -163 265 -81 41 -105 64 -105 104 0 24
8 39 31 58 40 34 68 33 114 -4 40 -32 44 -33 69 -24 42 16 -5 78 -82 108 -43
16 -65 19 -92 9z" />
    <path d="M4872 1632 c-9 -7 -12 -74 -10 -303 l3 -294 30 0 30 0 5 191 c5 185
6 192 31 230 15 22 52 57 83 79 45 31 56 44 56 66 0 26 -15 39 -46 39 -8 0
-34 -18 -58 -40 -24 -22 -48 -40 -55 -40 -6 0 -11 15 -11 34 0 40 -26 57 -58
38z" />
  </g>
</svg>
