<svg version="1.1" id="Capa_1" xmlns="http://www.w3.org/2000/svg" xmlns:xlink="http://www.w3.org/1999/xlink" x="0px"
	y="0px" width="721.692px" height="721.691px" viewBox="0 0 721.692 721.691"
	style="enable-background:new 0 0 721.692 721.691;" xml:space="preserve">
	<g>
		<g fill="#dcb227">
			<path d="M121.413,393.312l215.851,157.048c0.134,0.098,0.287,0.199,0.445,0.302c1.562,1.104,3.204,2.1,4.882,2.953
			c0.032,0.014,0.398,0.194,0.436,0.209c3.5,1.738,7.242,2.948,11.062,3.583l1.104,0.167c2.054,0.288,3.825,0.422,5.573,0.422
			c1.725,0,3.477-0.13,5.559-0.417l1.21-0.186c1.952-0.338,3.7-0.751,5.327-1.266c0.042-0.014,0.491-0.176,0.533-0.189
			c1.6-0.533,3.228-1.201,4.979-2.055l0.77-0.375c1.525-0.793,3.027-1.706,4.6-2.806c0.181-0.115,0.361-0.236,0.515-0.352
			l215.901-157.043c8.661-6.301,14.345-15.583,16.005-26.149c1.65-10.529-0.899-21.068-7.173-29.654
			c-7.594-10.474-19.166-16.482-31.75-16.482c-8.285,0-16.292,2.652-23.163,7.668L402.576,439.514V39.961
			C402.576,18.3,383.469,0,360.853,0c-22.621,0-41.732,18.3-41.732,39.961v399.538L167.586,328.69
			c-6.866-5.012-14.934-7.664-23.335-7.664c-12.602,0-24.596,6.162-32.079,16.478C99.311,355.224,103.456,380.261,121.413,393.312z
			 M127.185,348.399c4.066-5.605,10.288-8.823,17.066-8.823c4.442,0,8.73,1.414,12.393,4.089l166.274,121.588
			c2.824,2.063,6.57,2.369,9.671,0.784c3.111-1.581,5.077-4.775,5.077-8.267V39.961c0-11.406,10.835-21.416,23.187-21.416
			c12.347,0,23.177,10.01,23.177,21.416v417.824c0,3.491,1.961,6.686,5.077,8.271c3.12,1.581,6.857,1.274,9.671-0.784
			l166.246-121.598c3.668-2.68,7.892-4.094,12.217-4.094c6.57,0,12.667,3.218,16.752,8.851c3.365,4.604,4.729,10.237,3.848,15.87
			c-0.89,5.661-3.94,10.641-8.591,14.021L373.603,535.18c-0.135,0.088-0.265,0.177-0.381,0.255c-0.862,0.617-1.743,1.164-2.707,1.66
			c-0.047,0.019-0.376,0.181-0.422,0.199c-0.83,0.403-1.684,0.766-2.843,1.164c-0.927,0.292-1.887,0.501-2.795,0.658l-0.719,0.111
			c-1.961,0.265-4.02,0.269-5.972-0.005l-0.584-0.088c-2.063-0.343-4.057-0.987-6.162-2.026c-0.941-0.481-1.864-1.043-2.708-1.65
			c-0.121-0.088-0.255-0.181-0.394-0.273L132.322,378.313C122.632,371.266,120.323,357.848,127.185,348.399z" />
			<path d="M627.434,504.511c-22.097,0-39.404,17.553-39.404,39.961v93.766H133.667v-93.766c0-22.408-17.308-39.961-39.405-39.961
			c-22.102,0-39.414,17.553-39.414,39.961v135.678c0,23.294,16.607,41.542,37.8,41.542h536.395c21.197,0,37.8-18.248,37.8-41.542
			V544.472C666.848,522.068,649.536,504.511,627.434,504.511z M648.302,680.149c0,11.304-7.204,22.997-19.255,22.997H92.648
			c-12.055,0-19.255-11.693-19.255-22.997V544.472c0-12.009,9.166-21.416,20.868-21.416c11.693,0,20.859,9.407,20.859,21.416V647.51
			c0,5.118,4.154,9.272,9.272,9.272h472.909c5.119,0,9.273-4.154,9.273-9.272V544.472c0-12.009,9.161-21.416,20.858-21.416
			c11.702,0,20.868,9.407,20.868,21.416V680.149z" />
		</g>
	</g>
	<g>
	</g>
	<g>
	</g>
	<g>
	</g>
	<g>
	</g>
	<g>
	</g>
	<g>
	</g>
	<g>
	</g>
	<g>
	</g>
	<g>
	</g>
	<g>
	</g>
	<g>
	</g>
	<g>
	</g>
	<g>
	</g>
	<g>
	</g>
	<g>
	</g>
</svg>
